<?xml version="1.0" standalone="no"?>
<svg xmlns:xlink="http://www.w3.org/1999/xlink" id="wave" style="transform:rotate(180deg); transition: 0.3s" viewBox="0 0 1440 490" version="1.1" xmlns="http://www.w3.org/2000/svg"><defs><linearGradient id="sw-gradient-0" x1="0" x2="0" y1="1" y2="0"><stop stop-color="rgba(57, 96, 81, 1)" offset="0%"/><stop stop-color="rgba(57, 96, 81, 1)" offset="100%"/></linearGradient></defs><path style="transform:translate(0, 0px); opacity:1" fill="url(#sw-gradient-0)" d="M0,49L120,57.2C240,65,480,82,720,98C960,114,1200,131,1440,171.5C1680,212,1920,278,2160,294C2400,310,2640,278,2880,294C3120,310,3360,376,3600,367.5C3840,359,4080,278,4320,261.3C4560,245,4800,294,5040,318.5C5280,343,5520,343,5760,359.3C6000,376,6240,408,6480,375.7C6720,343,6960,245,7200,228.7C7440,212,7680,278,7920,310.3C8160,343,8400,343,8640,310.3C8880,278,9120,212,9360,163.3C9600,114,9840,82,10080,122.5C10320,163,10560,278,10800,318.5C11040,359,11280,327,11520,326.7C11760,327,12000,359,12240,383.8C12480,408,12720,425,12960,408.3C13200,392,13440,343,13680,302.2C13920,261,14160,229,14400,179.7C14640,131,14880,65,15120,81.7C15360,98,15600,196,15840,236.8C16080,278,16320,261,16560,253.2C16800,245,17040,245,17160,245L17280,245L17280,490L17160,490C17040,490,16800,490,16560,490C16320,490,16080,490,15840,490C15600,490,15360,490,15120,490C14880,490,14640,490,14400,490C14160,490,13920,490,13680,490C13440,490,13200,490,12960,490C12720,490,12480,490,12240,490C12000,490,11760,490,11520,490C11280,490,11040,490,10800,490C10560,490,10320,490,10080,490C9840,490,9600,490,9360,490C9120,490,8880,490,8640,490C8400,490,8160,490,7920,490C7680,490,7440,490,7200,490C6960,490,6720,490,6480,490C6240,490,6000,490,5760,490C5520,490,5280,490,5040,490C4800,490,4560,490,4320,490C4080,490,3840,490,3600,490C3360,490,3120,490,2880,490C2640,490,2400,490,2160,490C1920,490,1680,490,1440,490C1200,490,960,490,720,490C480,490,240,490,120,490L0,490Z"/></svg>